<svg width="61" height="61" viewBox="0 0 61 61" fill="none" xmlns="http://www.w3.org/2000/svg">
<path d="M9.15039 19.825L30.5004 7.625L51.8504 19.825V28.7584C51.8504 34.7442 49.6911 40.529 45.7693 45.0511C41.8475 49.573 36.4259 52.5285 30.5004 53.375C24.5749 52.5285 19.1533 49.573 15.2315 45.0511C11.3096 40.529 9.15044 34.7442 9.15039 28.7584V19.825Z" fill="url(#paint0_linear_6905_8044)" fill-opacity="0.24" stroke="white" stroke-width="1.5"/>
<path d="M35.0748 29.5481V25.9266C35.0748 24.7133 34.5928 23.5495 33.7348 22.6916C32.8768 21.8336 31.7131 21.3516 30.4998 21.3516C29.2865 21.3516 28.1228 21.8336 27.2648 22.6916C26.4069 23.5495 25.9248 24.7133 25.9248 25.9266V29.5481" stroke="white" stroke-width="1.5"/>
<path d="M22.875 36.6C22.875 37.8133 23.3571 38.977 24.215 39.835C25.073 40.6929 26.2367 41.175 27.45 41.175H33.55C34.7633 41.175 35.927 40.6929 36.785 39.835C37.6429 38.977 38.125 37.8133 38.125 36.6V30.5H22.875V36.6Z" fill="white" stroke="white" stroke-width="1.5"/>
<defs>
<linearGradient id="paint0_linear_6905_8044" x1="30.5004" y1="7.625" x2="30.5004" y2="53.375" gradientUnits="userSpaceOnUse">
<stop stop-color="white" stop-opacity="0"/>
<stop offset="1" stop-color="white"/>
</linearGradient>
</defs>
</svg>
