<svg width="92" height="92" viewBox="0 0 92 92" fill="none" xmlns="http://www.w3.org/2000/svg">
<path d="M57.5 43.7008V36.8008C57.5 33.7508 56.2884 30.8256 54.1316 28.6691C51.9752 26.5124 49.05 25.3008 46 25.3008C42.95 25.3008 40.0248 26.5124 37.8684 28.6691C35.7116 30.8256 34.5 33.7508 34.5 36.8008V43.7008" stroke="white" stroke-width="2.3"/>
<path d="M29.9004 59.8C29.9004 61.6299 30.6274 63.385 31.9214 64.679C33.2154 65.973 34.9705 66.7 36.8004 66.7H55.2004C57.0303 66.7 58.7854 65.973 60.0794 64.679C61.3734 63.385 62.1004 61.6299 62.1004 59.8V46H29.9004V59.8Z" fill="white" stroke="white" stroke-width="2.3"/>
<path d="M25.3 80.5H20.7C18.26 80.5 15.92 79.5308 14.1946 77.8053C12.4693 76.0801 11.5 73.7401 11.5 71.3V20.7C11.5 18.26 12.4693 15.92 14.1946 14.1946C15.92 12.4693 18.26 11.5 20.7 11.5H71.3C73.7401 11.5 76.0801 12.4693 77.8053 14.1946C79.5308 15.92 80.5 18.26 80.5 20.7V71.3C80.5 73.7401 79.5308 76.0801 77.8053 77.8053C76.0801 79.5308 73.7401 80.5 71.3 80.5H66.7" fill="url(#paint0_linear_6905_8031)" fill-opacity="0.24"/>
<path d="M25.3 80.5H20.7C18.26 80.5 15.92 79.5308 14.1946 77.8053C12.4693 76.0801 11.5 73.7401 11.5 71.3V20.7C11.5 18.26 12.4693 15.92 14.1946 14.1946C15.92 12.4693 18.26 11.5 20.7 11.5H71.3C73.7401 11.5 76.0801 12.4693 77.8053 14.1946C79.5308 15.92 80.5 18.26 80.5 20.7V71.3C80.5 73.7401 79.5308 76.0801 77.8053 77.8053C76.0801 79.5308 73.7401 80.5 71.3 80.5H66.7" stroke="white" stroke-width="2.3" stroke-linecap="round" stroke-linejoin="round"/>
<path opacity="0.4" d="M34.5 80.5H57.5" stroke="white" stroke-width="2.3" stroke-linecap="round" stroke-linejoin="round"/>
<defs>
<linearGradient id="paint0_linear_6905_8031" x1="46" y1="11.5" x2="46" y2="80.5" gradientUnits="userSpaceOnUse">
<stop stop-color="white" stop-opacity="0"/>
<stop offset="1" stop-color="white"/>
</linearGradient>
</defs>
</svg>
