<svg width="61" height="61" viewBox="0 0 61 61" fill="none" xmlns="http://www.w3.org/2000/svg">
<path d="M27.4528 44.2258C36.7174 44.2258 44.2278 36.7153 44.2278 27.4508C44.2278 18.1862 36.7174 10.6758 27.4528 10.6758C18.1882 10.6758 10.6777 18.1862 10.6777 27.4508C10.6777 36.7153 18.1882 44.2258 27.4528 44.2258Z" fill="url(#paint0_linear_6905_8048)" fill-opacity="0.24" stroke="white" stroke-linecap="round" stroke-linejoin="round"/>
<path opacity="0.2" d="M6.10547 10.6773C6.10547 10.2729 6.26615 9.88501 6.55214 9.59902C6.83814 9.31302 7.22602 9.15234 7.63049 9.15234H27.4554C27.8599 9.15234 28.2479 9.31302 28.5338 9.59902C28.8197 9.88501 28.9804 10.2729 28.9804 10.6773C28.9804 11.0818 28.8197 11.4697 28.5338 11.7557C28.2479 12.0417 27.8599 12.2023 27.4554 12.2023H7.63049C7.22602 12.2023 6.83814 12.0417 6.55214 11.7557C6.26615 11.4697 6.10547 11.0818 6.10547 10.6773ZM6.10547 50.3274C6.10547 49.9229 6.26615 49.535 6.55214 49.249C6.83814 48.9631 7.22602 48.8024 7.63049 48.8024H27.4554C27.8599 48.8024 28.2479 48.9631 28.5338 49.249C28.8197 49.535 28.9804 49.9229 28.9804 50.3274C28.9804 50.7319 28.8197 51.1196 28.5338 51.4057C28.2479 51.6917 27.8599 51.8524 27.4554 51.8524H7.63049C7.22602 51.8524 6.83814 51.6917 6.55214 51.4057C6.26615 51.1196 6.10547 50.7319 6.10547 50.3274Z" fill="white"/>
<path d="M42.8115 39.6872L41.2493 38.125L38.125 41.2493L39.6872 42.8115L42.8115 39.6872ZM45.7635 48.8879C45.9673 49.0989 46.2111 49.2672 46.4809 49.3831C46.7504 49.4988 47.0403 49.5598 47.3337 49.5625C47.6271 49.565 47.918 49.5091 48.1896 49.398C48.4611 49.2869 48.7079 49.1227 48.9153 48.9153C49.1227 48.7079 49.2869 48.4611 49.398 48.1896C49.5091 47.918 49.565 47.6271 49.5625 47.3337C49.5598 47.0403 49.4988 46.7504 49.3831 46.4809C49.2672 46.2111 49.0989 45.9673 48.8879 45.7635L45.7635 48.8879ZM39.6872 42.8115L45.7635 48.8879L48.8879 45.7635L42.8115 39.6872L39.6872 42.8115Z" fill="white"/>
<g opacity="0.2">
<path d="M28.9804 44.53C26.7061 44.7618 24.4085 44.4778 22.259 43.6989C20.1095 42.92 18.1635 41.6662 16.5655 40.0312H7.63049C7.22602 40.0312 6.83814 40.1919 6.55214 40.4779C6.26615 40.7638 6.10549 41.1517 6.10547 41.5562V44.6062C6.10547 45.0108 6.26615 45.3987 6.55214 45.6846C6.83814 45.9706 7.22602 46.1313 7.63049 46.1313H27.4554C27.8599 46.1313 28.2479 45.9706 28.5338 45.6846C28.8197 45.3987 28.9804 45.0108 28.9804 44.6062V44.53Z" fill="white"/>
</g>
<path d="M14.981 33.5492H25.5492C25.9537 33.5492 26.3416 33.3885 26.6275 33.1026C26.9135 32.8165 27.0742 32.4287 27.0742 32.0242V28.9742C27.0742 28.5697 26.9135 28.1818 26.6275 27.8959C26.3416 27.6099 25.9537 27.4492 25.5492 27.4492H13.3492C13.3492 29.6711 13.944 31.7543 14.981 33.5492ZM11.568 33.5492C10.7284 31.6252 10.2964 29.5484 10.2992 27.4492H5.72424C5.31977 27.4492 4.93189 27.6099 4.64589 27.8959C4.3599 28.1818 4.19924 28.5697 4.19922 28.9742V32.0242C4.19922 32.4287 4.3599 32.8165 4.64589 33.1026C4.93189 33.3885 5.31977 33.5492 5.72424 33.5492H11.568Z" fill="white"/>
<path opacity="0.2" fill-rule="evenodd" clip-rule="evenodd" d="M14.2368 22.8774H25.5492C25.9537 22.8774 26.3416 22.7167 26.6275 22.4307C26.9135 22.1446 27.0742 21.7569 27.0742 21.3524V18.3023C27.0742 17.8979 26.9135 17.51 26.6275 17.224C26.3416 16.938 25.9537 16.7773 25.5492 16.7773H19.6383C17.1937 18.1343 15.2886 20.2868 14.2368 22.8774ZM10.9977 22.8774C11.7195 20.5838 12.9736 18.4935 14.6577 16.7773H5.72424C5.31977 16.7773 4.93189 16.938 4.64589 17.224C4.3599 17.51 4.19924 17.8979 4.19922 18.3023V21.3524C4.19922 21.7569 4.3599 22.1446 4.64589 22.4307C4.93189 22.7167 5.31977 22.8774 5.72424 22.8774H10.9977Z" fill="white"/>
<defs>
<linearGradient id="paint0_linear_6905_8048" x1="27.4528" y1="10.6758" x2="27.4528" y2="44.2258" gradientUnits="userSpaceOnUse">
<stop stop-color="white" stop-opacity="0"/>
<stop offset="1" stop-color="white"/>
</linearGradient>
</defs>
</svg>
