<svg width="1920" height="935" viewBox="0 0 1920 935" fill="none" xmlns="http://www.w3.org/2000/svg">
<path fill-rule="evenodd" clip-rule="evenodd" d="M1920 1.41365C1920 1.40882 1920.01 1.4052 1918.97 0.782001C1917.93 0.158799 1917.93 0.160005 1917.93 0.164836L1917.92 0.184168L1917.87 0.262675C1917.84 0.333932 1917.77 0.440197 1917.68 0.580296C1917.51 0.862917 1917.25 1.28323 1916.91 1.84C1916.22 2.95355 1915.18 4.60696 1913.8 6.76643C1911.06 11.0829 1906.94 17.4176 1901.5 25.483C1890.59 41.6126 1874.35 64.6614 1852.94 92.3238C1810.17 147.649 1746.83 221.415 1664.64 295.18C1500.23 442.719 1260.47 590.167 958.808 590.167V592.582C1261.29 592.582 1501.61 444.734 1666.25 296.977C1748.58 223.094 1812.01 149.213 1854.87 93.8009C1876.29 66.095 1892.57 43.0039 1903.5 26.8357C1908.96 18.751 1913.08 12.3982 1915.84 8.06357C1917.22 5.89685 1918.26 4.23376 1918.96 3.11176C1919.31 2.55136 1919.56 2.12624 1919.75 1.84C1919.83 1.69628 1919.89 1.58878 1919.94 1.51631L1919.99 1.43419L1920 1.41365ZM1919.89 179.111C1919.89 179.107 1919.89 179.106 1918.97 178.322C1918.06 177.54 1918.06 177.541 1918.06 177.543L1918.04 177.556L1917.99 177.612L1917.91 177.71L1917.8 177.835C1917.73 177.921 1917.63 178.024 1917.54 178.145L1917.37 178.338C1917.26 178.455 1917.15 178.584 1917.03 178.726C1916.34 179.512 1915.3 180.681 1913.92 182.207C1911.18 185.259 1907.08 189.74 1901.62 195.444C1890.72 206.853 1874.48 223.158 1853.09 242.726C1810.31 281.863 1746.99 334.054 1664.8 386.244C1500.41 490.627 1260.59 594.998 958.808 594.998V597.413C1261.17 597.413 1501.43 492.842 1666.09 388.283C1748.43 336.004 1811.86 283.723 1854.72 244.507C1876.15 224.899 1892.44 208.557 1903.37 197.112C1908.84 191.39 1912.96 186.892 1915.72 183.823C1917.1 182.288 1918.15 181.111 1918.84 180.316C1919.19 179.919 1919.46 179.617 1919.63 179.414C1919.71 179.312 1919.78 179.236 1919.82 179.184L1919.88 179.126L1919.89 179.111ZM1918.97 301.513C1919.75 302.437 1919.75 302.44 1919.75 302.442L1919.73 302.453L1919.69 302.495L1919.55 302.604L1919.48 302.659C1919.31 302.805 1919.05 303.022 1918.7 303.307C1918.01 303.877 1916.96 304.721 1915.58 305.822C1912.81 308.023 1908.68 311.248 1903.22 315.349C1892.28 323.553 1876 335.269 1854.56 349.323C1811.71 377.434 1748.27 414.906 1665.95 452.374C1501.29 527.313 1261.08 602.244 958.808 602.244V599.829C1260.67 599.829 1500.55 524.999 1664.95 450.176C1747.15 412.764 1810.47 375.354 1853.25 347.304C1874.62 333.278 1890.87 321.593 1901.77 313.418C1907.22 309.33 1911.33 306.12 1914.07 303.932C1915.45 302.839 1916.49 302.001 1917.17 301.438C1917.32 301.318 1917.45 301.209 1917.56 301.113C1917.72 300.987 1917.84 300.883 1917.95 300.801C1918.03 300.731 1918.09 300.676 1918.13 300.641L1918.18 300.601L1918.19 300.592C1918.19 300.592 1918.19 300.59 1918.21 300.618C1918.22 300.632 1918.25 300.651 1918.27 300.68C1918.32 300.733 1918.38 300.818 1918.5 300.954L1918.97 301.513ZM1919.49 436.666C1919.49 436.666 1919.49 436.666 1919.49 436.663C1919.49 436.661 1919.49 436.656 1919.48 436.645C1919.47 436.625 1919.46 436.584 1919.41 436.499C1919.35 436.354 1919.21 436.082 1918.97 435.574C1918.73 435.081 1918.61 434.812 1918.54 434.665C1918.5 434.596 1918.48 434.553 1918.47 434.527C1918.45 434.502 1918.45 434.492 1918.45 434.488C1918.45 434.486 1918.45 434.486 1918.45 434.486L1918.44 434.492L1918.39 434.515L1918.2 434.605C1918.03 434.686 1917.77 434.807 1917.43 434.968C1916.74 435.288 1915.7 435.765 1914.32 436.387C1911.58 437.63 1907.48 439.456 1902.02 441.781C1891.12 446.431 1874.88 453.076 1853.49 461.05C1810.7 477.002 1747.36 498.276 1665.14 519.552C1500.7 562.102 1260.77 604.66 958.808 604.66V607.075C1261 607.075 1501.14 564.486 1665.74 521.89C1748.05 500.592 1811.47 479.292 1854.32 463.314C1875.76 455.324 1892.04 448.666 1902.97 444.003C1908.43 441.671 1912.56 439.837 1915.33 438.587C1916.7 437.962 1917.74 437.481 1918.44 437.157C1918.79 436.996 1919.06 436.872 1919.23 436.79L1919.43 436.696L1919.48 436.672L1919.49 436.666ZM1918.97 543.064C1919.14 543.928 1919.18 544.163 1919.19 544.227C1919.19 544.251 1919.19 544.251 1919.19 544.251L1919.18 544.254L1919.13 544.264L1918.94 544.301C1918.76 544.334 1918.5 544.382 1918.15 544.446L1917.83 544.506L1917.43 544.58C1917.21 544.62 1916.97 544.665 1916.7 544.712C1916.22 544.8 1915.66 544.9 1915.04 545.012C1912.28 545.509 1908.16 546.236 1902.69 547.161C1891.77 549.012 1875.49 551.655 1854.08 554.827C1811.25 561.17 1747.85 569.626 1665.57 578.083C1501.01 594.995 1260.93 611.906 958.808 611.906V609.491C1260.84 609.491 1500.84 592.585 1665.32 575.68C1747.57 567.228 1810.93 558.776 1853.73 552.438C1875.13 549.268 1891.39 546.628 1902.29 544.779C1907.74 543.855 1911.86 543.129 1914.61 542.635C1915.99 542.388 1917.03 542.198 1917.72 542.07C1918.06 542.007 1918.32 541.959 1918.49 541.927L1918.68 541.89L1918.73 541.881L1918.74 541.878C1918.74 541.878 1918.74 541.878 1918.76 541.901C1918.76 541.924 1918.77 541.968 1918.78 542.053L1918.82 542.244C1918.85 542.419 1918.9 542.68 1918.97 543.064ZM1918.96 608.283C1918.96 608.283 1918.96 608.283 1918.97 609.491C1918.99 610.699 1918.99 610.699 1918.97 610.699H1918.96H1918.95L1918.91 610.7H1918.88H1918.84H1918.78L1918.72 610.701H1918.65L1918.57 610.702H1918.49L1918.39 610.703H1918.3L1918.19 610.705L1918.07 610.706L1917.95 610.707H1917.81L1917.67 610.708L1917.51 610.709L1917.35 610.711L1917.2 610.712L1917.02 610.713L1916.84 610.715L1916.64 610.717L1916.45 610.718L1916.24 610.719L1916.03 610.721L1915.81 610.723L1915.58 610.724L1915.34 610.726L1915.1 610.727L1914.83 610.73L1914.58 610.732L1914.3 610.734L1914.02 610.736L1913.74 610.738L1913.44 610.741L1913.14 610.743L1912.84 610.746L1912.51 610.748L1912.19 610.75L1911.86 610.753L1911.51 610.755L1911.16 610.758L1910.81 610.76L1910.43 610.763L1910.06 610.766L1909.69 610.769L1909.3 610.772L1908.9 610.775L1908.49 610.778L1908.08 610.781L1907.66 610.784L1907.23 610.788L1906.79 610.79L1906.35 610.794L1905.89 610.798L1905.43 610.801L1904.96 610.805L1904.49 610.808L1904.01 610.812L1903.51 610.816L1903.01 610.819L1902.5 610.823L1901.99 610.827L1901.46 610.831L1900.93 610.835L1900.4 610.839L1899.85 610.843L1899.3 610.847L1898.73 610.852L1898.16 610.856L1897.58 610.86L1896.99 610.865L1896.4 610.869L1895.8 610.874L1895.19 610.878L1894.58 610.883L1893.95 610.888L1893.32 610.892L1892.68 610.897L1892.03 610.903L1891.38 610.907L1890.71 610.912L1890.04 610.917L1889.36 610.922L1888.67 610.928L1887.98 610.933L1887.28 610.938L1886.57 610.944L1885.84 610.949L1885.12 610.955L1884.39 610.959L1883.65 610.965L1882.9 610.971L1882.15 610.976L1881.38 610.982L1880.61 610.988L1879.83 610.994L1879.04 611L1878.25 611.007L1877.45 611.013L1876.64 611.019L1875.82 611.025L1875 611.031L1874.17 611.037L1873.32 611.043L1872.47 611.05L1871.62 611.056L1870.75 611.063L1869.88 611.069L1869.01 611.075L1868.11 611.083L1867.22 611.09L1866.33 611.096L1865.41 611.103L1864.49 611.11L1863.57 611.116L1862.64 611.124L1861.7 611.131L1860.76 611.138L1859.81 611.145L1858.84 611.153L1857.87 611.16L1856.89 611.167L1855.9 611.174L1854.91 611.182L1853.91 611.19L1852.91 611.197L1851.89 611.205L1850.87 611.213L1849.84 611.22L1848.8 611.229L1847.76 611.236L1846.7 611.244L1845.65 611.252L1844.58 611.26L1843.5 611.269L1842.43 611.277L1841.33 611.284L1840.24 611.293L1839.13 611.301L1838.02 611.31L1836.89 611.318L1835.77 611.327L1834.64 611.335L1833.49 611.343L1832.34 611.353L1831.19 611.362L1830.02 611.37L1828.85 611.378L1827.67 611.388L1826.48 611.397L1825.29 611.406L1824.09 611.415L1822.88 611.424L1821.66 611.433L1820.44 611.443L1819.21 611.452L1817.97 611.461L1816.72 611.47L1815.47 611.48L1814.21 611.49L1812.94 611.499L1811.68 611.509L1810.38 611.519L1809.1 611.528L1807.8 611.538L1806.49 611.548L1805.18 611.557L1803.86 611.567L1802.53 611.578L1801.2 611.587L1799.86 611.597L1798.51 611.608L1797.16 611.618L1795.79 611.628L1794.43 611.638L1793.05 611.649L1791.66 611.66L1790.27 611.67L1788.87 611.68L1787.46 611.691L1786.05 611.702L1784.63 611.713L1783.2 611.724L1781.76 611.735L1780.32 611.746L1778.87 611.757L1777.41 611.767L1775.95 611.778L1774.48 611.789L1772.99 611.8L1771.51 611.812L1770.02 611.823L1768.51 611.834L1767.01 611.846L1765.49 611.857L1763.97 611.869L1762.44 611.88L1760.9 611.892L1759.36 611.904L1757.81 611.915L1756.25 611.927L1754.68 611.939L1753.11 611.951L1751.53 611.963L1749.95 611.974L1748.35 611.986L1746.75 611.998L1745.14 612.01L1743.52 612.023L1741.9 612.036L1740.27 612.048L1738.63 612.06L1736.99 612.072L1735.35 612.085L1733.68 612.097L1732.01 612.109L1730.35 612.122L1728.67 612.135L1726.98 612.148L1725.29 612.161L1723.58 612.173L1721.88 612.186L1720.16 612.2L1718.44 612.212L1716.71 612.225L1714.97 612.238L1713.23 612.252L1711.48 612.265L1709.73 612.278L1707.97 612.292L1706.19 612.305L1704.42 612.318L1702.63 612.331L1700.83 612.345L1699.03 612.359L1697.23 612.372L1695.42 612.386L1693.59 612.4L1691.77 612.414L1689.93 612.427L1688.09 612.441L1686.24 612.455L1684.39 612.469L1682.53 612.484L1680.66 612.497L1678.79 612.511L1676.9 612.526L1675.01 612.54L1673.11 612.555L1671.21 612.568L1669.29 612.583L1667.39 612.597L1665.45 612.612L1663.52 612.626L1661.59 612.642L1659.64 612.656L1657.69 612.671L1655.73 612.685L1653.76 612.7L1651.79 612.716L1649.81 612.73L1647.82 612.746L1645.83 612.76L1643.83 612.776L1641.82 612.79L1639.81 612.806L1637.78 612.821L1635.75 612.836L1633.73 612.852L1631.68 612.866L1629.63 612.882L1627.58 612.898L1625.52 612.914L1623.45 612.929L1621.37 612.945L1619.29 612.961L1617.2 612.976L1615.1 612.992L1613 613.008L1610.9 613.023L1608.77 613.04L1606.66 613.056L1604.52 613.072L1602.38 613.087L1600.25 613.104L1598.1 613.12L1595.93 613.137L1593.77 613.153L1591.6 613.17L1589.42 613.185L1587.24 613.202L1585.05 613.219L1582.85 613.236L1580.66 613.252L1578.45 613.269L1576.22 613.286L1574 613.302L1571.77 613.319L1569.53 613.336L1567.29 613.353L1565.04 613.37L1562.78 613.387L1560.51 613.404L1558.24 613.421L1555.97 613.439L1553.68 613.456L1551.39 613.473L1549.09 613.491L1546.79 613.508L1544.47 613.525L1542.15 613.543L1539.83 613.56L1537.5 613.578L1535.16 613.596L1532.82 613.613L1530.47 613.631L1528.12 613.649L1525.75 613.666L1523.38 613.684L1521.01 613.702L1518.61 613.72L1516.22 613.738L1513.83 613.757L1511.43 613.775L1509.01 613.793L1506.6 613.811L1504.18 613.829L1501.75 613.847L1499.31 613.866L1496.87 613.885L1494.42 613.903L1491.96 613.922L1489.51 613.94L1487.03 613.958L1484.56 613.978L1482.08 613.996L1479.59 614.015L1477.09 614.033L1474.59 614.052L1472.08 614.072L1469.57 614.09L1467.04 614.109L1464.52 614.129L1461.98 614.148L1459.45 614.167L1456.9 614.187L1454.35 614.206L1451.79 614.225L1449.22 614.245L1446.64 614.264L1444.07 614.283L1441.49 614.302L1438.89 614.322L1436.29 614.341L1433.68 614.362L1431.08 614.381L1428.46 614.4L1425.83 614.421L1423.2 614.44L1420.57 614.461L1417.92 614.48L1415.27 614.501L1412.62 614.52L1409.95 614.54L1407.28 614.561L1404.61 614.58L1401.93 614.601L1399.24 614.621L1396.55 614.642L1393.84 614.662L1391.14 614.683L1388.42 614.703L1385.7 614.724L1382.98 614.745L1380.24 614.765L1377.51 614.786L1374.76 614.806L1372 614.827L1369.25 614.847L1366.49 614.869L1363.72 614.889L1360.94 614.91L1358.16 614.932L1355.37 614.952L1352.57 614.974L1349.77 614.995L1346.97 615.016L1344.15 615.037L1341.33 615.059L1338.5 615.08L1335.66 615.101L1332.83 615.123L1329.99 615.144L1327.14 615.166L1324.27 615.187L1321.41 615.208L1318.54 615.23L1315.66 615.252L1312.78 615.273L1309.89 615.295L1306.99 615.317L1304.09 615.339L1301.18 615.362L1298.27 615.383L1295.35 615.405L1292.43 615.427L1289.49 615.45L1286.56 615.472L1283.61 615.495L1280.66 615.516L1277.7 615.538L1274.74 615.561L1271.77 615.583L1268.79 615.606L1265.81 615.629L1262.82 615.65L1259.83 615.673L1256.83 615.696L1253.83 615.719L1250.81 615.741L1247.8 615.764L1244.77 615.787L1241.74 615.81L1238.7 615.833L1235.66 615.856L1232.61 615.879L1229.55 615.902L1226.49 615.924L1223.43 615.949L1220.36 615.972L1217.28 615.995L1214.19 616.017L1211.1 616.042L1208 616.065L1204.9 616.088L1201.79 616.112L1198.67 616.135L1195.55 616.159L1192.42 616.182L1189.29 616.206L1186.15 616.23L1183 616.253L1179.85 616.277L1176.69 616.301L1173.53 616.324L1170.36 616.348L1167.19 616.373L1164 616.397L1160.82 616.421L1157.62 616.445L1154.42 616.469L1151.22 616.493L1148.01 616.518L1144.79 616.542L1141.57 616.566L1138.34 616.59L1135.1 616.615L1131.86 616.639L1128.61 616.664L1125.36 616.688L1122.1 616.713L1118.84 616.737L1115.57 616.763L1112.29 616.787L1109.01 616.812L1105.72 616.836L1102.43 616.862L1099.12 616.886L1095.82 616.911L1092.51 616.937L1089.19 616.961L1085.87 616.986L1082.54 617.011L1079.2 617.037L1075.86 617.062L1072.51 617.088L1069.16 617.113L1065.8 617.138L1062.44 617.164L1059.07 617.189L1055.69 617.214L1052.31 617.24L1048.92 617.265L1045.53 617.29L1042.13 617.317L1038.72 617.342L1035.31 617.368L1031.89 617.393L1028.47 617.42L1025.04 617.445L1021.61 617.472L1018.17 617.497L1014.73 617.524L1011.27 617.549L1007.82 617.576L1004.35 617.602L1000.89 617.627L997.411 617.654L993.931 617.681L990.445 617.706L986.954 617.732L983.457 617.759L979.954 617.786L976.446 617.812L972.931 617.839L969.41 617.865L965.885 617.892L962.353 617.919L958.816 617.945L958.798 615.53L962.335 615.503L965.867 615.476L969.392 615.45L972.913 615.423L976.426 615.397L979.935 615.37L983.438 615.344L986.935 615.317L990.427 615.292L993.913 615.265L997.393 615.238L1000.87 615.212L1004.34 615.187L1007.8 615.16L1011.26 615.133L1014.71 615.108L1018.15 615.081L1021.59 615.056L1025.03 615.03L1028.46 615.004L1031.88 614.979L1035.29 614.952L1038.71 614.927L1042.11 614.902L1045.51 614.875L1048.9 614.85L1052.29 614.824L1055.67 614.799L1059.05 614.773L1062.42 614.748L1065.78 614.723L1069.14 614.697L1072.49 614.672L1075.84 614.647L1079.18 614.621L1082.52 614.596L1085.85 614.571L1089.17 614.545L1092.49 614.521L1095.8 614.496L1099.11 614.47L1102.41 614.446L1105.7 614.421L1108.99 614.397L1112.27 614.371L1115.55 614.347L1118.82 614.322L1122.08 614.298L1125.34 614.272L1128.59 614.248L1131.84 614.224L1135.08 614.2L1138.32 614.174L1141.55 614.15L1144.77 614.126L1147.99 614.102L1151.2 614.078L1154.4 614.054L1157.6 614.03L1160.8 614.005L1163.99 613.981L1167.17 613.957L1170.34 613.933L1173.51 613.909L1176.68 613.886L1179.83 613.862L1182.99 613.837L1186.13 613.815L1189.27 613.79L1192.4 613.766L1195.53 613.743L1198.65 613.719L1201.77 613.696L1204.88 613.672L1207.98 613.649L1211.08 613.626L1214.18 613.602L1217.26 613.579L1220.33 613.556L1223.4 613.533L1226.47 613.509L1229.54 613.486L1232.59 613.463L1235.64 613.44L1238.68 613.417L1241.72 613.394L1244.76 613.371L1247.78 613.348L1250.79 613.327L1253.8 613.304L1256.81 613.281L1259.82 613.258L1262.81 613.235L1265.79 613.213L1268.78 613.19L1271.75 613.168L1274.72 613.145L1277.68 613.122L1280.64 613.101L1283.6 613.079L1286.53 613.056L1289.48 613.034L1292.4 613.011L1295.34 612.99L1298.26 612.968L1301.17 612.946L1304.08 612.924L1306.98 612.901L1309.88 612.88L1312.76 612.858L1315.64 612.836L1318.53 612.815L1321.39 612.793L1324.25 612.771L1327.11 612.75L1329.96 612.729L1332.81 612.707L1335.65 612.685L1338.49 612.665L1341.32 612.643L1344.13 612.621L1346.94 612.601L1349.76 612.579L1352.56 612.558L1355.35 612.537L1358.14 612.516L1360.92 612.494L1363.7 612.474L1366.47 612.453L1369.24 612.432L1371.99 612.411L1374.75 612.391L1377.49 612.37L1380.23 612.35L1382.96 612.329L1385.69 612.308L1388.41 612.288L1391.12 612.267L1393.83 612.247L1396.52 612.226L1399.22 612.206L1401.91 612.185L1404.59 612.165L1407.27 612.145L1409.94 612.125L1412.6 612.104L1415.25 612.085L1417.9 612.065L1420.54 612.045L1423.19 612.025L1425.81 612.005L1428.44 611.985L1431.05 611.965L1433.67 611.946L1436.27 611.926L1438.87 611.906L1441.46 611.887L1444.05 611.868L1446.63 611.848L1449.2 611.829L1451.76 611.81L1454.33 611.79L1456.89 611.771L1459.42 611.752L1461.97 611.732L1464.51 611.713L1467.03 611.694L1469.56 611.676L1472.07 611.656L1474.57 611.637L1477.08 611.619L1479.57 611.6L1482.06 611.58L1484.54 611.562L1487.02 611.543L1489.48 611.525L1491.95 611.507L1494.4 611.487L1496.85 611.469L1499.29 611.451L1501.73 611.432L1504.16 611.414L1506.59 611.395L1509 611.377L1511.42 611.359L1513.82 611.341L1516.21 611.323L1518.6 611.305L1520.98 611.287L1523.36 611.269L1525.73 611.25L1528.1 611.234L1530.45 611.215L1532.81 611.197L1535.15 611.18L1537.49 611.162L1539.82 611.144L1542.14 611.127L1544.46 611.109L1546.77 611.092L1549.07 611.075L1551.37 611.057L1553.66 611.04L1555.95 611.023L1558.23 611.005L1560.5 610.988L1562.76 610.971L1565.02 610.955L1567.26 610.938L1569.51 610.921L1571.76 610.904L1573.98 610.887L1576.2 610.87L1578.42 610.853L1580.63 610.836L1582.84 610.821L1585.03 610.804L1587.23 610.787L1589.41 610.771L1591.59 610.754L1593.76 610.737L1595.92 610.721L1598.07 610.705L1600.22 610.689L1602.37 610.673L1604.51 610.656L1606.64 610.641L1608.76 610.625L1610.87 610.608L1612.99 610.592L1615.09 610.577L1617.18 610.561L1619.27 610.545L1621.36 610.529L1623.44 610.514L1625.5 610.498L1627.57 610.482L1629.62 610.467L1631.66 610.451L1633.71 610.436L1635.74 610.421L1637.77 610.405L1639.79 610.391L1641.81 610.375L1643.81 610.36L1645.81 610.345L1647.81 610.33L1649.79 610.314L1651.77 610.3L1653.75 610.285L1655.71 610.27L1657.68 610.255L1659.62 610.241L1661.56 610.226L1663.51 610.212L1665.44 610.196L1667.36 610.182L1669.28 610.167L1671.19 610.153L1673.1 610.139L1674.99 610.125L1676.88 610.11L1678.76 610.096L1680.63 610.081L1682.51 610.068L1684.37 610.054L1686.23 610.04L1688.07 610.026L1689.91 610.011L1691.75 609.998L1693.58 609.985L1695.39 609.97L1697.2 609.957L1699.02 609.944L1700.82 609.929L1702.6 609.916L1704.39 609.903L1706.17 609.889L1707.94 609.876L1709.71 609.863L1711.47 609.849L1713.22 609.836L1714.96 609.823L1716.7 609.81L1718.43 609.796L1720.14 609.784L1721.86 609.771L1723.57 609.758L1725.27 609.746L1726.96 609.732L1728.64 609.719L1730.32 609.707L1732 609.695L1733.67 609.682L1735.32 609.67L1736.98 609.656L1738.62 609.644L1740.25 609.632L1741.88 609.62L1743.51 609.608L1745.13 609.595L1746.74 609.583L1748.33 609.57L1749.92 609.558L1751.52 609.548L1753.1 609.535L1754.67 609.523L1756.23 609.511L1757.79 609.499L1759.34 609.488L1760.89 609.476L1762.42 609.464L1763.96 609.453L1765.48 609.441L1766.99 609.43L1768.5 609.418L1770 609.407L1771.49 609.397L1772.98 609.384L1774.45 609.374L1775.93 609.363L1777.4 609.352L1778.85 609.341L1780.3 609.33L1781.75 609.319L1783.18 609.308L1784.61 609.298L1786.04 609.287L1787.45 609.276L1788.85 609.265L1790.25 609.254L1791.64 609.244L1793.03 609.234L1794.41 609.224L1795.78 609.213L1797.15 609.202L1798.5 609.192L1799.84 609.183L1801.18 609.172L1802.52 609.162L1803.85 609.153L1805.17 609.142L1806.48 609.132L1807.79 609.122L1809.08 609.113L1810.37 609.103L1811.65 609.093L1812.93 609.084L1814.2 609.074L1815.46 609.064L1816.71 609.055L1817.96 609.045L1819.19 609.037L1820.42 609.027L1821.65 609.017L1822.86 609.009L1824.07 608.999L1825.28 608.991L1826.47 608.981L1827.65 608.973L1828.84 608.963L1830.01 608.955L1831.17 608.946L1832.33 608.938L1833.48 608.928L1834.62 608.919L1835.75 608.911L1836.88 608.903L1838.01 608.894L1839.12 608.886L1840.22 608.877L1841.31 608.869L1842.4 608.862L1843.49 608.853L1844.56 608.845L1845.63 608.836L1846.69 608.829L1847.74 608.82L1848.79 608.813L1849.82 608.805L1850.86 608.798L1851.87 608.789L1852.88 608.782L1853.9 608.775L1854.9 608.767L1855.89 608.759L1856.87 608.752L1857.85 608.744L1858.81 608.737L1859.78 608.73L1860.74 608.723L1861.68 608.715L1862.62 608.708L1863.55 608.701L1864.48 608.695L1865.4 608.688L1866.3 608.68L1867.21 608.674L1868.1 608.667L1868.98 608.66L1869.87 608.654L1870.74 608.648L1871.59 608.641L1872.45 608.634L1873.31 608.628L1874.14 608.621L1874.97 608.615L1875.8 608.609L1876.62 608.603L1877.43 608.597L1878.24 608.591L1879.02 608.585L1879.82 608.579L1880.59 608.573L1881.36 608.567L1882.12 608.561L1882.89 608.556L1883.63 608.55L1884.37 608.544L1885.11 608.539L1885.83 608.533L1886.54 608.528L1887.26 608.522L1887.96 608.517L1888.66 608.513L1889.35 608.506L1890.02 608.502L1890.69 608.497L1891.35 608.492L1892.02 608.487L1892.66 608.482L1893.3 608.477L1893.94 608.473L1894.55 608.468L1895.17 608.463L1895.78 608.458L1896.39 608.453L1896.98 608.45L1897.56 608.445L1898.14 608.44L1898.71 608.436L1899.27 608.432L1899.83 608.428L1900.37 608.423L1900.92 608.419L1901.45 608.416L1901.97 608.411L1902.49 608.407L1902.99 608.404L1903.49 608.4L1903.98 608.397L1904.47 608.393L1904.95 608.389L1905.41 608.386L1905.88 608.382L1906.33 608.378L1906.77 608.375L1907.21 608.372L1907.64 608.369L1908.05 608.365L1908.48 608.363L1908.88 608.359L1909.27 608.357L1909.66 608.353L1910.05 608.351L1910.42 608.348L1910.78 608.345L1911.15 608.342L1911.5 608.34L1911.84 608.337L1912.17 608.335L1912.5 608.333L1912.81 608.33L1913.13 608.328L1913.43 608.325L1913.72 608.323L1914.01 608.32L1914.29 608.318L1914.55 608.317L1914.82 608.314L1915.07 608.313L1915.31 608.311L1915.56 608.308L1915.78 608.307L1916.01 608.306L1916.22 608.304L1916.42 608.302L1916.63 608.301L1916.82 608.3L1917 608.297L1917.17 608.296L1917.34 608.295L1917.5 608.294L1917.64 608.293H1917.79L1917.92 608.291L1918.06 608.29L1918.16 608.289L1918.27 608.288H1918.38L1918.47 608.287H1918.56L1918.63 608.285H1918.71L1918.77 608.284H1918.82H1918.86H1918.9L1918.92 608.283H1918.95H1918.96ZM1918.97 933.169C1919.75 932.245 1919.75 932.244 1919.75 932.242L1919.73 932.231L1919.69 932.188L1919.67 932.178L1919.56 932.089L1919.48 932.023L1919.34 931.9L1919.17 931.761C1919.03 931.651 1918.88 931.523 1918.7 931.376C1918.01 930.806 1916.96 929.961 1915.58 928.861C1912.81 926.659 1908.68 923.436 1903.22 919.333C1892.28 911.129 1876 899.414 1854.56 885.359C1811.71 857.248 1748.27 819.778 1665.95 782.309C1501.29 707.37 1261.08 632.438 958.808 632.438V634.854C1260.67 634.854 1500.55 709.684 1664.95 784.507C1747.15 821.919 1810.47 859.328 1853.25 887.378C1874.62 901.404 1890.87 913.089 1901.77 921.266C1907.22 925.353 1911.33 928.564 1914.07 930.75C1915.45 931.844 1916.49 932.681 1917.17 933.244C1917.51 933.527 1917.77 933.739 1917.95 933.882C1918.01 933.939 1918.07 933.984 1918.1 934.018L1918.13 934.041L1918.18 934.081L1918.19 934.091C1918.19 934.091 1918.19 934.092 1918.25 934.024C1918.33 933.93 1918.53 933.705 1918.97 933.169ZM1919.49 796.809C1919.49 796.809 1919.49 796.811 1918.97 797.901C1918.45 798.99 1918.45 798.989 1918.45 798.989L1918.44 798.983L1918.39 798.961L1918.2 798.869C1918.03 798.788 1917.77 798.668 1917.43 798.507C1917.14 798.375 1916.8 798.218 1916.4 798.035C1916.16 797.922 1915.89 797.8 1915.6 797.67C1915.22 797.494 1914.79 797.299 1914.32 797.089C1911.58 795.845 1907.48 794.019 1902.02 791.694C1891.12 787.045 1874.88 780.4 1853.49 772.424C1810.7 756.472 1747.36 735.199 1665.14 713.923C1500.7 671.373 1260.77 628.815 958.808 628.815V626.399C1261 626.399 1501.14 668.988 1665.74 711.585C1748.05 732.882 1811.47 754.182 1854.32 770.161C1875.76 778.15 1892.04 784.809 1902.97 789.473C1908.43 791.804 1912.56 793.637 1915.33 794.888C1916.7 795.513 1917.74 795.994 1918.44 796.317C1918.63 796.409 1918.8 796.488 1918.95 796.554C1919.06 796.605 1919.15 796.649 1919.23 796.686L1919.43 796.779L1919.48 796.803L1919.49 796.809ZM1918.97 689.203C1919.2 688.017 1919.2 688.015 1919.19 688.015L1919.18 688.013L1919.13 688.003L1918.94 687.967C1918.76 687.934 1918.5 687.885 1918.15 687.821C1917.46 687.693 1916.42 687.502 1915.04 687.255C1912.28 686.758 1908.16 686.031 1902.69 685.106C1891.77 683.256 1875.49 680.612 1854.08 677.44C1811.25 671.097 1747.85 662.641 1665.57 654.184C1501.01 637.272 1260.93 620.361 958.808 620.361V622.776C1260.84 622.776 1500.84 639.682 1665.32 656.587C1747.57 665.039 1810.93 673.491 1853.73 679.829C1875.13 682.998 1891.39 685.64 1902.29 687.488C1907.74 688.412 1911.86 689.137 1914.61 689.631C1915.45 689.781 1916.15 689.909 1916.73 690.015C1917.11 690.085 1917.44 690.146 1917.72 690.197C1918.06 690.261 1918.32 690.309 1918.49 690.34L1918.68 690.378L1918.73 690.386L1918.74 690.389C1918.74 690.389 1918.74 690.39 1918.97 689.203Z" fill="url(#paint0_linear_6584_21717)"/>
<path fill-rule="evenodd" clip-rule="evenodd" d="M-0.150077 1.41365C-0.153096 1.40882 -0.154666 1.4052 0.879656 0.782001C1.9141 0.158799 1.91518 0.160005 1.91771 0.164836L1.92943 0.184168L1.97726 0.262675C2.02013 0.333932 2.0845 0.440197 2.17062 0.580296C2.34284 0.862917 2.60142 1.28323 2.94624 1.84C3.63562 2.95355 4.66935 4.60696 6.04414 6.76642C8.7936 11.0829 12.9068 17.4176 18.3578 25.483C29.2598 41.6126 45.5116 64.6614 66.9024 92.3238C109.685 147.649 173.018 221.415 255.213 295.18C419.615 442.719 659.381 590.167 961.045 590.167V592.582C658.561 592.582 418.243 444.734 253.599 296.977C171.272 223.094 107.841 149.213 64.9915 93.8009C43.566 66.095 27.284 43.0039 16.3565 26.8357C10.8928 18.751 6.76735 12.3982 4.00666 8.06357C2.62632 5.89685 1.58727 4.23376 0.892574 3.11176C0.545345 2.55136 0.284108 2.12624 0.109346 1.84C0.0220254 1.69628 -0.0436774 1.58878 -0.0876397 1.51631L-0.137398 1.43419L-0.150077 1.41365ZM-0.035099 179.111C-0.0381184 179.107 -0.0398086 179.106 0.879656 178.322C1.799 177.54 1.79997 177.541 1.80238 177.543L1.81397 177.556L1.86143 177.612L1.94537 177.71L2.05407 177.835C2.1275 177.921 2.21663 178.024 2.32159 178.145L2.48934 178.338C2.59116 178.455 2.70408 178.584 2.82812 178.726C3.51654 179.512 4.54929 180.681 5.92299 182.207C8.67039 185.259 12.7816 189.74 18.2305 195.444C29.1282 206.853 45.3757 223.158 66.7622 242.726C109.536 281.863 172.862 334.054 255.053 386.244C419.438 490.627 659.257 594.998 961.045 594.998V597.413C658.683 597.413 418.419 492.842 253.758 388.283C171.428 336.004 107.99 283.723 65.1316 244.507C43.7018 224.899 27.4156 208.557 16.4837 197.112C11.0178 191.39 6.8904 186.892 4.12766 183.823C2.74635 182.288 1.70611 181.111 1.01057 180.316C0.66262 179.919 0.401021 179.617 0.225776 179.414C0.138214 179.312 0.0722705 179.236 0.0279458 179.184L-0.022176 179.126L-0.035099 179.111ZM0.879656 301.513C0.102103 302.437 0.103793 302.44 0.106933 302.442L0.119856 302.453L0.170217 302.495L0.300777 302.604L0.36853 302.659C0.544017 302.805 0.805981 303.022 1.15418 303.307C1.85033 303.877 2.89106 304.721 4.27309 305.822C7.0368 308.023 11.1654 311.248 16.6322 315.349C27.5661 323.553 43.8537 335.269 65.2845 349.323C108.146 377.434 171.582 414.906 253.906 452.374C418.555 527.313 658.767 602.244 961.045 602.244V599.829C659.173 599.829 419.302 524.999 254.907 450.176C172.708 412.764 109.381 375.354 66.6092 347.304C45.2237 333.278 28.9777 321.593 18.0819 313.418C12.6341 309.33 8.52389 306.12 5.77758 303.932C4.40448 302.839 3.37235 302.001 2.68453 301.438C2.53694 301.318 2.40516 301.209 2.28934 301.113C2.13523 300.987 2.00926 300.883 1.91143 300.801C1.82568 300.731 1.76155 300.676 1.71928 300.641L1.67194 300.601L1.66047 300.592C1.66047 300.592 1.65914 300.59 1.63523 300.618C1.62388 300.632 1.60721 300.651 1.58269 300.68C1.5374 300.733 1.46554 300.818 1.35081 300.954L0.879656 301.513ZM0.363219 436.666C0.363219 436.666 0.362494 436.666 0.363219 436.663C0.363943 436.661 0.365872 436.656 0.370341 436.645C0.379278 436.625 0.398486 436.584 0.438584 436.499C0.506943 436.354 0.636293 436.082 0.879656 435.574C1.11517 435.081 1.2444 434.812 1.31566 434.665C1.34887 434.596 1.3694 434.553 1.38233 434.527C1.39477 434.502 1.39983 434.492 1.40212 434.488C1.40357 434.486 1.40419 434.486 1.40419 434.486L1.41565 434.492L1.46311 434.515L1.65552 434.605C1.82702 434.686 2.08499 434.807 2.42908 434.968C3.11726 435.288 4.14989 435.765 5.52347 436.387C8.27063 437.63 12.3819 439.456 17.8311 441.781C28.7292 446.431 44.9789 453.076 66.3688 461.05C109.149 477.002 172.491 498.276 254.709 519.552C419.145 562.102 659.084 604.66 961.045 604.66V607.075C658.857 607.075 418.712 564.486 254.104 521.89C171.799 500.592 108.377 479.292 65.525 463.314C44.0987 455.324 27.8145 448.666 16.8831 444.003C11.4176 441.671 7.29018 439.837 4.5272 438.587C3.14577 437.962 2.1054 437.481 1.40949 437.157C1.06166 436.996 0.799823 436.872 0.624457 436.79L0.426383 436.696L0.376142 436.672L0.363219 436.666ZM0.879656 543.064C0.715643 543.928 0.671679 544.163 0.661172 544.227C0.657186 544.251 0.658633 544.251 0.658633 544.251L0.671193 544.254L0.720711 544.264L0.917458 544.301C1.09186 544.334 1.35273 544.382 1.69971 544.446L2.02484 544.506L2.42509 544.58C2.64599 544.62 2.88767 544.665 3.14988 544.712C3.63395 544.8 4.18794 544.9 4.81163 545.012C7.5705 545.509 11.694 546.236 17.1553 547.161C28.0781 549.012 44.3534 551.655 65.7699 554.827C108.603 561.17 172.003 569.626 254.283 578.083C418.843 594.995 658.925 611.906 961.045 611.906V609.491C659.015 609.491 419.016 592.585 254.53 575.68C172.287 567.228 108.923 558.776 66.1238 552.438C44.7242 549.268 28.4656 546.628 17.5588 544.779C12.1055 543.855 7.99007 543.129 5.23904 542.635C3.86353 542.388 2.82896 542.198 2.13897 542.07C1.79392 542.007 1.53499 541.959 1.3624 541.927L1.16868 541.89L1.12059 541.881L1.10876 541.878C1.10876 541.878 1.10743 541.878 1.10248 541.901C1.09777 541.924 1.08908 541.968 1.07254 542.053L1.03582 542.244C1.00224 542.419 0.952605 542.68 0.879656 543.064ZM0.892818 608.283C0.89004 608.283 0.888714 608.283 0.879656 609.491C0.870477 610.699 0.871926 610.699 0.874584 610.699H0.886778H0.907069L0.935574 610.7H0.972289H1.01697H1.06987L1.13086 610.701H1.19994L1.27712 610.702H1.3624L1.45575 610.703H1.55733L1.66686 610.705L1.78451 610.706L1.91023 610.707H2.04406L2.18584 610.708L2.33572 610.709L2.4937 610.711L2.65989 610.712L2.83393 610.713L3.01605 610.715L3.20616 610.717L3.40434 610.718L3.6105 610.719L3.82489 610.721L4.04711 610.723L4.27743 610.724L4.5156 610.726L4.76186 610.728L5.01622 610.73L5.27853 610.732L5.54871 610.734L5.82698 610.736L6.11321 610.738L6.40742 610.741L6.70962 610.743L7.01975 610.746L7.33788 610.748L7.66397 610.75L7.99793 610.753L8.33995 610.755L8.68984 610.758L9.04771 610.76L9.41341 610.763L9.7871 610.766L10.1687 610.769L10.5582 610.772L10.9557 610.775L11.361 610.778L11.7743 610.781L12.1954 610.784L12.6244 610.788L13.0614 610.79L13.5062 610.794L13.9589 610.798L14.4195 610.801L14.888 610.805L15.3642 610.808L15.8484 610.812L16.3404 610.816L16.8403 610.819L17.348 610.823L17.8635 610.827L18.3869 610.831L18.9182 610.835L19.4572 610.839L20.0041 610.843L20.5588 610.847L21.1212 610.852L21.6915 610.856L22.2696 610.86L22.8554 610.865L23.4492 610.869L24.0506 610.874L24.66 610.878L25.2769 610.883L25.9018 610.888L26.5343 610.892L27.1746 610.897L27.8227 610.903L28.4785 610.907L29.1422 610.912L29.8134 610.917L30.4926 610.922L31.1794 610.928L31.8739 610.933L32.5762 610.938L33.2862 610.944L34.0039 610.949L34.7292 610.955L35.4624 610.959L36.2032 610.965L36.9518 610.972L37.7079 610.976L38.4718 610.982L39.2434 610.988L40.0226 610.994L40.8095 611L41.604 611.007L42.4063 611.013L43.2161 611.019L44.0337 611.025L44.8589 611.031L45.6917 611.037L46.5323 611.043L47.3804 611.05L48.2361 611.056L49.0994 611.063L49.9704 611.069L50.8489 611.075L51.7352 611.083L52.6289 611.09L53.5304 611.096L54.4393 611.103L55.3559 611.11L56.2801 611.116L57.2119 611.124L58.1511 611.131L59.098 611.138L60.0524 611.145L61.0144 611.153L61.9839 611.16L62.9611 611.167L63.9458 611.174L64.938 611.182L65.9378 611.19L66.945 611.197L67.9598 611.205L68.9822 611.213L70.012 611.22L71.0493 611.229L72.0942 611.236L73.1465 611.244L74.2064 611.252L75.2737 611.26L76.3486 611.269L77.4309 611.277L78.5206 611.284L79.6179 611.293L80.7227 611.301L81.835 611.31L82.9546 611.318L84.0818 611.327L85.2162 611.335L86.3583 611.343L87.5077 611.353L88.6646 611.362L89.829 611.37L91.0006 611.378L92.1798 611.388L93.3664 611.397L94.5604 611.406L95.7618 611.415L96.9706 611.424L98.1868 611.433L99.4103 611.443L100.641 611.452L101.88 611.461L103.125 611.47L104.378 611.48L105.639 611.49L106.907 611.499L108.182 611.509L109.464 611.519L110.754 611.528L112.052 611.538L113.356 611.548L114.668 611.557L115.987 611.567L117.314 611.578L118.648 611.587L119.989 611.597L121.338 611.608L122.693 611.618L124.056 611.628L125.427 611.638L126.804 611.649L128.189 611.66L129.582 611.67L130.982 611.68L132.387 611.691L133.802 611.702L135.223 611.713L136.652 611.724L138.088 611.735L139.531 611.746L140.981 611.757L142.438 611.767L143.903 611.778L145.376 611.789L146.855 611.8L148.341 611.812L149.835 611.823L151.336 611.834L152.844 611.846L154.359 611.857L155.882 611.869L157.411 611.88L158.948 611.892L160.492 611.904L162.044 611.915L163.602 611.927L165.167 611.939L166.74 611.951L168.319 611.963L169.906 611.974L171.501 611.986L173.102 611.998L174.711 612.01L176.326 612.023L177.949 612.036L179.578 612.048L181.216 612.06L182.86 612.072L184.511 612.085L186.169 612.097L187.834 612.109L189.507 612.122L191.186 612.135L192.873 612.148L194.566 612.161L196.267 612.173L197.975 612.186L199.69 612.2L201.412 612.212L203.141 612.225L204.877 612.238L206.62 612.252L208.37 612.265L210.127 612.278L211.892 612.292L213.662 612.305L215.441 612.318L217.226 612.331L219.019 612.345L220.818 612.359L222.624 612.372L224.438 612.386L226.258 612.4L228.085 612.414L229.919 612.427L231.76 612.441L233.608 612.455L235.463 612.469L237.326 612.484L239.194 612.497L241.071 612.511L242.954 612.526L244.844 612.54L246.74 612.555L248.644 612.568L250.554 612.583L252.472 612.597L254.397 612.612L256.329 612.626L258.267 612.642L260.213 612.656L262.164 612.671L264.123 612.685L266.09 612.7L268.062 612.716L270.041 612.73L272.028 612.746L274.022 612.76L276.022 612.776L278.03 612.79L280.044 612.806L282.065 612.821L284.092 612.836L286.126 612.852L288.169 612.866L290.216 612.882L292.271 612.898L294.333 612.914L296.402 612.929L298.478 612.945L300.56 612.961L302.65 612.976L304.745 612.992L306.848 613.008L308.958 613.023L311.074 613.04L313.197 613.056L315.326 613.072L317.463 613.087L319.606 613.104L321.756 613.12L323.913 613.137L326.078 613.153L328.248 613.17L330.424 613.185L332.609 613.202L334.799 613.219L336.997 613.236L339.201 613.252L341.411 613.269L343.629 613.286L345.853 613.302L348.084 613.319L350.322 613.336L352.566 613.353L354.817 613.37L357.075 613.387L359.339 613.404L361.61 613.421L363.888 613.439L366.171 613.456L368.463 613.473L370.761 613.491L373.065 613.508L375.376 613.525L377.693 613.543L380.017 613.56L382.348 613.578L384.686 613.596L387.029 613.613L389.381 613.631L391.738 613.649L394.102 613.666L396.473 613.684L398.85 613.702L401.234 613.72L403.624 613.738L406.02 613.757L408.424 613.775L410.834 613.793L413.251 613.811L415.674 613.829L418.104 613.847L420.54 613.866L422.982 613.885L425.431 613.903L427.888 613.922L430.35 613.94L432.819 613.958L435.295 613.978L437.777 613.996L440.265 614.015L442.76 614.033L445.261 614.052L447.77 614.072L450.284 614.09L452.805 614.109L455.333 614.129L457.867 614.148L460.407 614.167L462.954 614.187L465.507 614.206L468.067 614.225L470.634 614.245L473.206 614.264L475.785 614.283L478.371 614.302L480.963 614.322L483.562 614.341L486.167 614.362L488.778 614.381L491.395 614.4L494.02 614.421L496.65 614.44L499.287 614.461L501.93 614.48L504.58 614.501L507.236 614.52L509.899 614.54L512.568 614.561L515.244 614.58L517.925 614.601L520.613 614.621L523.308 614.642L526.008 614.662L528.715 614.683L531.429 614.703L534.149 614.724L536.874 614.745L539.608 614.765L542.346 614.786L545.091 614.806L547.842 614.827L550.601 614.847L553.364 614.869L556.134 614.889L558.911 614.91L561.694 614.932L564.484 614.952L567.278 614.974L570.08 614.995L572.888 615.016L575.703 615.037L578.524 615.059L581.35 615.08L584.183 615.101L587.023 615.123L589.868 615.144L592.72 615.166L595.577 615.187L598.442 615.208L601.313 615.23L604.19 615.252L607.073 615.274L609.962 615.295L612.857 615.317L615.758 615.339L618.666 615.362L621.58 615.383L624.501 615.405L627.426 615.427L630.36 615.45L633.298 615.472L636.242 615.495L639.193 615.516L642.151 615.538L645.113 615.561L648.083 615.583L651.059 615.606L654.04 615.629L657.028 615.65L660.022 615.673L663.022 615.696L666.028 615.719L669.04 615.741L672.06 615.764L675.084 615.787L678.114 615.81L681.152 615.833L684.194 615.856L687.242 615.879L690.298 615.902L693.358 615.924L696.426 615.949L699.5 615.972L702.578 615.995L705.664 616.017L708.755 616.042L711.853 616.065L714.956 616.088L718.066 616.112L721.181 616.135L724.302 616.159L727.43 616.182L730.563 616.206L733.704 616.23L736.849 616.253L740.001 616.277L743.158 616.301L746.322 616.324L749.491 616.348L752.666 616.373L755.849 616.397L759.036 616.421L762.229 616.445L765.429 616.469L768.634 616.493L771.846 616.517L775.063 616.542L778.287 616.566L781.515 616.59L784.751 616.615L787.992 616.639L791.239 616.664L794.491 616.688L797.751 616.713L801.015 616.737L804.286 616.763L807.563 616.787L810.844 616.812L814.133 616.836L817.428 616.862L820.727 616.886L824.033 616.911L827.346 616.937L830.663 616.961L833.986 616.986L837.316 617.011L840.651 617.037L843.992 617.062L847.339 617.088L850.691 617.113L854.05 617.138L857.415 617.164L860.786 617.189L864.162 617.214L867.543 617.24L870.931 617.265L874.325 617.29L877.725 617.317L881.129 617.342L884.54 617.368L887.957 617.393L891.38 617.42L894.807 617.445L898.242 617.472L901.682 617.497L905.127 617.524L908.578 617.549L912.036 617.575L915.499 617.602L918.967 617.627L922.441 617.654L925.921 617.681L929.407 617.706L932.899 617.733L936.396 617.759L939.899 617.786L943.407 617.812L946.922 617.839L950.441 617.865L953.968 617.892L957.499 617.918L961.036 617.945L961.054 615.53L957.517 615.503L953.986 615.476L950.459 615.45L946.94 615.423L943.425 615.397L939.917 615.37L936.414 615.344L932.917 615.317L929.425 615.292L925.939 615.265L922.46 615.238L918.985 615.212L915.517 615.187L912.054 615.16L908.596 615.133L905.146 615.108L901.7 615.081L898.26 615.056L894.825 615.03L891.398 615.004L887.975 614.979L884.558 614.952L881.148 614.927L877.743 614.902L874.343 614.875L870.949 614.85L867.561 614.824L864.18 614.799L860.804 614.773L857.433 614.748L854.068 614.723L850.71 614.697L847.357 614.672L844.01 614.647L840.67 614.621L837.334 614.596L834.004 614.571L830.681 614.545L827.364 614.521L824.052 614.496L820.745 614.47L817.446 614.446L814.151 614.421L810.863 614.397L807.581 614.371L804.304 614.347L801.033 614.322L797.769 614.298L794.509 614.272L791.257 614.248L788.01 614.224L784.769 614.2L781.533 614.174L778.305 614.15L775.081 614.126L771.864 614.102L768.652 614.078L765.447 614.054L762.248 614.03L759.054 614.005L755.867 613.981L752.685 613.957L749.509 613.933L746.34 613.909L743.176 613.886L740.019 613.862L736.867 613.837L733.722 613.815L730.581 613.79L727.449 613.766L724.32 613.743L721.2 613.719L718.084 613.696L714.975 613.672L711.871 613.649L708.773 613.626L705.682 613.602L702.597 613.579L699.518 613.556L696.444 613.533L693.378 613.509L690.316 613.486L687.262 613.463L684.212 613.44L681.17 613.417L678.132 613.394L675.102 613.371L672.078 613.348L669.06 613.327L666.046 613.304L663.04 613.281L660.04 613.258L657.046 613.235L654.059 613.213L651.077 613.19L648.101 613.168L645.132 613.145L642.169 613.122L639.211 613.101L636.261 613.079L633.316 613.056L630.378 613.034L627.445 613.011L624.519 612.99L621.598 612.968L618.684 612.946L615.777 612.924L612.875 612.901L609.98 612.88L607.091 612.858L604.208 612.836L601.331 612.815L598.46 612.793L595.597 612.771L592.738 612.751L589.886 612.729L587.041 612.707L584.202 612.685L581.368 612.665L578.542 612.643L575.721 612.621L572.907 612.601L570.099 612.579L567.297 612.558L564.502 612.537L561.712 612.516L558.929 612.494L556.153 612.474L553.382 612.453L550.619 612.432L547.86 612.411L545.109 612.391L542.364 612.37L539.626 612.35L536.893 612.329L534.167 612.308L531.447 612.288L528.733 612.267L526.026 612.247L523.326 612.226L520.631 612.206L517.943 612.185L515.262 612.165L512.586 612.145L509.917 612.125L507.254 612.104L504.598 612.085L501.949 612.065L499.306 612.045L496.668 612.025L494.038 612.005L491.413 611.985L488.796 611.965L486.185 611.946L483.58 611.926L480.981 611.906L478.389 611.887L475.803 611.868L473.224 611.848L470.652 611.829L468.085 611.81L465.525 611.79L462.972 611.771L460.425 611.752L457.885 611.732L455.351 611.713L452.823 611.694L450.303 611.676L447.788 611.656L445.279 611.637L442.778 611.619L440.283 611.6L437.795 611.58L435.313 611.562L432.837 611.543L430.369 611.525L427.906 611.507L425.451 611.487L423.001 611.469L420.558 611.451L418.122 611.432L415.692 611.414L413.269 611.395L410.852 611.377L408.442 611.359L406.038 611.341L403.642 611.323L401.252 611.305L398.868 611.287L396.491 611.269L394.12 611.25L391.757 611.234L389.399 611.215L387.049 611.197L384.704 611.18L382.366 611.162L380.035 611.144L377.712 611.127L375.394 611.109L373.083 611.092L370.779 611.075L368.481 611.057L366.19 611.04L363.906 611.023L361.628 611.005L359.357 610.988L357.093 610.972L354.836 610.955L352.584 610.938L350.34 610.921L348.102 610.904L345.872 610.887L343.647 610.87L341.429 610.853L339.219 610.836L337.015 610.821L334.818 610.804L332.627 610.787L330.444 610.771L328.266 610.754L326.096 610.737L323.931 610.721L321.774 610.705L319.625 610.689L317.482 610.673L315.344 610.656L313.215 610.641L311.092 610.625L308.976 610.608L306.866 610.592L304.763 610.577L302.668 610.561L300.578 610.545L298.496 610.529L296.42 610.514L294.351 610.498L292.289 610.482L290.235 610.467L288.187 610.451L286.144 610.436L284.111 610.421L282.083 610.405L280.062 610.391L278.048 610.375L276.04 610.36L274.04 610.345L272.046 610.33L270.06 610.314L268.08 610.3L266.108 610.285L264.142 610.27L262.183 610.255L260.231 610.241L258.285 610.226L256.347 610.212L254.415 610.196L252.49 610.182L250.574 610.167L248.663 610.153L246.758 610.139L244.862 610.125L242.972 610.11L241.089 610.096L239.213 610.081L237.344 610.068L235.482 610.054L233.626 610.04L231.779 610.026L229.937 610.011L228.103 609.998L226.276 609.985L224.456 609.97L222.642 609.957L220.836 609.944L219.037 609.929L217.244 609.916L215.459 609.903L213.682 609.889L211.91 609.876L210.145 609.863L208.388 609.849L206.638 609.836L204.895 609.823L203.16 609.81L201.43 609.796L199.708 609.784L197.993 609.771L196.285 609.758L194.584 609.746L192.891 609.732L191.204 609.719L189.525 609.707L187.852 609.695L186.187 609.682L184.529 609.67L182.878 609.656L181.234 609.644L179.597 609.632L177.967 609.62L176.345 609.608L174.729 609.595L173.12 609.583L171.519 609.571L169.925 609.558L168.338 609.548L166.758 609.535L165.185 609.523L163.62 609.511L162.062 609.499L160.51 609.488L158.967 609.476L157.429 609.464L155.9 609.453L154.377 609.441L152.863 609.43L151.354 609.418L149.853 609.407L148.36 609.397L146.873 609.384L145.394 609.374L143.922 609.363L142.457 609.352L141 609.341L139.549 609.33L138.106 609.319L136.67 609.308L135.241 609.298L133.82 609.287L132.406 609.276L131 609.265L129.6 609.254L128.207 609.244L126.822 609.234L125.445 609.224L124.075 609.213L122.711 609.202L121.356 609.192L120.007 609.183L118.666 609.172L117.332 609.162L116.006 609.153L114.686 609.142L113.374 609.132L112.07 609.122L110.773 609.113L109.483 609.103L108.2 609.093L106.925 609.084L105.657 609.074L104.397 609.064L103.144 609.055L101.898 609.045L100.66 609.037L99.4286 609.027L98.205 609.017L96.9888 609.009L95.78 608.999L94.5786 608.991L93.3846 608.981L92.198 608.973L91.0189 608.963L89.8471 608.955L88.6828 608.946L87.5259 608.938L86.3765 608.928L85.2344 608.92L84.0999 608.911L82.9728 608.903L81.8531 608.894L80.7409 608.886L79.6362 608.877L78.539 608.869L77.4491 608.862L76.3667 608.853L75.292 608.845L74.2247 608.836L73.1649 608.829L72.1124 608.82L71.0675 608.813L70.0302 608.805L69.0004 608.798L67.978 608.789L66.9633 608.782L65.956 608.775L64.9562 608.767L63.9639 608.759L62.9794 608.752L62.0023 608.744L61.0327 608.737L60.0706 608.73L59.1162 608.723L58.1694 608.715L57.2301 608.708L56.2983 608.701L55.3741 608.695L54.4576 608.688L53.5485 608.68L52.6471 608.674L51.7534 608.667L50.8672 608.66L49.9886 608.654L49.1176 608.648L48.2543 608.641L47.3985 608.634L46.5504 608.628L45.71 608.621L44.8772 608.615L44.0519 608.609L43.2344 608.603L42.4245 608.597L41.6223 608.591L40.8277 608.585L40.0407 608.579L39.2616 608.573L38.49 608.567L37.7261 608.561L36.9699 608.556L36.2214 608.55L35.4806 608.544L34.7475 608.539L34.0221 608.533L33.3043 608.528L32.5943 608.522L31.8921 608.517L31.1975 608.512L30.5108 608.506L29.8317 608.502L29.1604 608.497L28.4967 608.492L27.8409 608.487L27.1929 608.482L26.5525 608.477L25.9199 608.473L25.2951 608.468L24.6781 608.463L24.0689 608.458L23.4674 608.453L22.8737 608.45L22.2878 608.445L21.7098 608.44L21.1393 608.436L20.5769 608.432L20.0223 608.428L19.4754 608.423L18.9363 608.42L18.4051 608.416L17.8818 608.411L17.3662 608.407L16.8585 608.404L16.3587 608.4L15.8666 608.397L15.3825 608.393L14.9061 608.389L14.4378 608.386L13.9771 608.382L13.5244 608.378L13.0796 608.375L12.6427 608.372L12.2137 608.369L11.7926 608.365L11.3793 608.363L10.974 608.359L10.5765 608.357L10.187 608.353L9.80533 608.351L9.43164 608.348L9.06581 608.345L8.70808 608.342L8.35807 608.34L8.01627 608.337L7.68209 608.335L7.35613 608.333L7.038 608.33L6.72784 608.328L6.42567 608.325L6.13146 608.323L5.84521 608.32L5.56695 608.318L5.29666 608.317L5.03445 608.314L4.78023 608.313L4.53383 608.311L4.29554 608.308L4.06536 608.307L3.843 608.306L3.62887 608.304L3.42259 608.302L3.2244 608.301L3.03428 608.3L2.85204 608.298L2.678 608.296L2.51205 608.295L2.35397 608.294L2.20408 608.293H2.06217L1.92846 608.291L1.80274 608.29L1.6851 608.289L1.57545 608.288H1.474L1.38064 608.287H1.29537L1.21819 608.285H1.14899L1.08812 608.284H1.03521H0.990523H0.953809L0.925429 608.283H0.905018H0.892818ZM0.879656 933.169C0.102103 932.245 0.103793 932.244 0.106933 932.242L0.119856 932.231L0.170217 932.188L0.182053 932.178L0.288457 932.089L0.36853 932.023L0.516602 931.9L0.684844 931.761C0.818301 931.651 0.974825 931.523 1.15418 931.376C1.85033 930.806 2.89106 929.961 4.27309 928.861C7.0368 926.659 11.1653 923.436 16.6322 919.333C27.5661 911.129 43.8537 899.414 65.2845 885.359C108.146 857.249 171.582 819.778 253.906 782.309C418.555 707.37 658.767 632.438 961.045 632.438V634.854C659.173 634.854 419.302 709.684 254.907 784.507C172.708 821.919 109.381 859.328 66.6092 887.378C45.2237 901.404 28.9777 913.089 18.0819 921.266C12.6341 925.353 8.52389 928.564 5.77758 930.75C4.40448 931.844 3.37235 932.681 2.68453 933.244C2.34056 933.527 2.08269 933.739 1.91143 933.882C1.84259 933.939 1.78776 933.984 1.74694 934.018L1.71928 934.041L1.67194 934.081L1.66047 934.091C1.66047 934.091 1.65878 934.092 1.60081 934.024C1.52062 933.93 1.33088 933.705 0.879656 933.169ZM0.363219 796.809C0.360079 796.81 0.358389 796.811 0.879656 797.901C1.40081 798.99 1.40177 798.99 1.40419 798.989L1.41565 798.983L1.46311 798.961L1.65552 798.869C1.82702 798.788 2.08499 798.668 2.42908 798.507C2.71157 798.375 3.05204 798.218 3.45035 798.035C3.69372 797.922 3.9587 797.8 4.24518 797.67C4.63202 797.494 5.05812 797.299 5.52347 797.089C8.27063 795.845 12.3819 794.019 17.8311 791.694C28.7292 787.045 44.9789 780.4 66.3688 772.424C109.149 756.472 172.491 735.199 254.709 713.923C419.145 671.373 659.084 628.815 961.045 628.815V626.399C658.857 626.399 418.712 668.988 254.104 711.585C171.799 732.882 108.377 754.182 65.525 770.161C44.0987 778.15 27.8145 784.809 16.8831 789.473C11.4176 791.804 7.29018 793.637 4.5272 794.888C3.14577 795.513 2.1054 795.994 1.40949 796.317C1.21371 796.409 1.04524 796.488 0.90405 796.554C0.794265 796.605 0.70115 796.649 0.624457 796.686L0.426383 796.779L0.376142 796.803L0.363219 796.809ZM0.879656 689.203C0.654168 688.017 0.655735 688.015 0.658633 688.015L0.671193 688.013L0.720711 688.003L0.917458 687.967C1.09186 687.934 1.35273 687.885 1.69971 687.821C2.39369 687.693 3.43213 687.502 4.81163 687.255C7.5705 686.758 11.694 686.031 17.1553 685.106C28.0781 683.256 44.3534 680.612 65.7699 677.44C108.603 671.097 172.003 662.64 254.283 654.184C418.843 637.272 658.925 620.361 961.045 620.361V622.776C659.015 622.776 419.016 639.682 254.53 656.587C172.287 665.039 108.923 673.491 66.1238 679.829C44.7242 682.998 28.4656 685.64 17.5588 687.488C12.1055 688.412 7.99007 689.137 5.23904 689.631C4.40823 689.781 3.70182 689.909 3.12053 690.015C2.73948 690.085 2.41217 690.146 2.13897 690.197C1.79392 690.261 1.53499 690.309 1.3624 690.34L1.16868 690.378L1.12059 690.386L1.10876 690.389C1.10622 690.389 1.10503 690.39 0.879656 689.203Z" fill="url(#paint1_linear_6584_21717)"/>
<defs>
<linearGradient id="paint0_linear_6584_21717" x1="973.299" y1="454.88" x2="1901.36" y2="454.88" gradientUnits="userSpaceOnUse">
<stop offset="0.0182341" stop-color="#C031FA" stop-opacity="0"/>
<stop offset="0.127609" stop-color="#C031FA"/>
<stop offset="0.467451" stop-color="#C031FA" stop-opacity="0.65"/>
<stop offset="0.917969" stop-color="#C031FA" stop-opacity="0"/>
</linearGradient>
<linearGradient id="paint1_linear_6584_21717" x1="946.554" y1="454.88" x2="18.4893" y2="454.88" gradientUnits="userSpaceOnUse">
<stop offset="0.0182341" stop-color="#C031FA" stop-opacity="0"/>
<stop offset="0.127609" stop-color="#C031FA"/>
<stop offset="0.563305" stop-color="#C031FA" stop-opacity="0.65"/>
<stop offset="0.943305" stop-color="#C031FA" stop-opacity="0"/>
</linearGradient>
</defs>
</svg>
